<svg width="580" height="400" xmlns="http://www.w3.org/2000/svg">
 <!-- Created with Method Draw - http://github.com/duopixel/Method-Draw/ -->
 <g>
  <title>background</title>
  <rect fill="#fff" id="canvas_background" height="402" width="582" y="-1" x="-1"/>
  <g display="none" overflow="visible" y="0" x="0" height="100%" width="100%" id="canvasGrid">
   <rect fill="url(#gridpattern)" stroke-width="0" y="0" x="0" height="100%" width="100%"/>
  </g>
 </g>
 <g>
  <title>Layer 1</title>
  <ellipse ry="79" rx="75" id="svg_1" cy="140.4375" cx="201.5" stroke-width="1.5" stroke="#000" fill="#fff"/>
  <ellipse id="svg_2" cy="167.4375" cx="146.5" stroke-width="1.5" stroke="#bf0000" fill="#fff"/>
  <ellipse ry="64.5" rx="84" id="svg_3" cy="134.9375" cx="412.5" stroke-width="1.5" stroke="#bf5f00" fill="#fff"/>
  <path id="svg_4" d="m77.863766,256.782849l15.742552,-26.22071l27.264899,-15.139646l31.485109,0l27.264899,15.139646l15.742548,26.22071l0,30.279295l-15.742548,26.22071l-27.264899,15.139642l-31.485109,0l-27.264899,-15.139642l-15.742552,-26.22071l0,-30.279295z" stroke-width="1.5" stroke="#bf5f00" fill="#fff"/>
  <path d="m223.750015,229c1,0 6.602493,2.308609 17,8c14.14418,7.742249 27.190292,16.464661 38.999985,24c11.711487,7.472687 23.160156,14.234222 35.5,19.5c6.836578,2.917389 14.440674,4.646759 18,6c1.477936,0.56192 2,1 2.5,1l0,0l0,-0.5l-0.5,0" id="svg_5" stroke-width="1.5" stroke="#bf5f00" fill="none"/>
  <line stroke-linecap="null" stroke-linejoin="null" id="svg_6" y2="75" x2="256.25001" y1="76.5" x1="43.75001" stroke-width="1.5" stroke="#bf5f00" fill="none"/>
  <path id="svg_7" d="m166.25001,159c118.5,43 -55.5,76 73,57.5c128.5,-18.5 167.5,28.5 167.5,29c0,0.5 -25,130 13,28c38,-102 141,-59.5 11.5,-122.5c-129.5,-63 -107.5,-86.5 -107.5,-86.5c0,0 -50.5,115.5 -50.750018,115.499994" stroke-width="1.5" stroke="#bf5f00" fill="#fff"/>
 </g>
</svg>