<svg width="300" height="300" xmlns="http://www.w3.org/2000/svg">
 <!-- Created with Method Draw - http://github.com/duopixel/Method-Draw/ -->

 <g>
  <title>background</title>
  <rect fill="#bf00bf" id="canvas_background" height="302" width="302" y="-1" x="-1"/>
  <g display="none" overflow="visible" y="0" x="0" height="100%" width="100%" id="canvasGrid">
   <rect fill="url(#gridpattern)" stroke-width="0" y="0" x="0" height="100%" width="100%"/>
  </g>
 </g>
 <g>
  <title>Layer 1</title>
  <text xml:space="preserve" text-anchor="start" font-family="Helvetica, Arial, sans-serif" font-size="24" id="svg_2" y="176.05" x="168" stroke-width="0" stroke="#000" fill="#000000">你好</text>
  <path d="m104.5,72.050003c0,0 -1.152245,-0.765366 -3,0c-1.306564,0.541199 -1,2 -3,3c-2,1 -3.097885,1.824432 -5,3c-0.850655,0.525734 -1.292892,1.292892 -2,2c-2.121323,2.121323 -1.585785,1.585785 -3,3c-0.707108,0.707108 -1.234634,0.152245 -2,2c-1.08239,2.613129 -1.617317,2.076118 -2,3c-0.541199,1.306564 -3,3 -3,3c-1,0 -1,1 -2,4c0,0 -2,3 -3,4c0,0 -0.234634,1.152245 -1,3c-0.541199,1.306564 -0.770248,2.026749 -1,3c-0.513741,2.176254 -2,3 -2,5c0,1 0,3 0,5c0,1 0,3 0,5c0,1 0,2 0,4c0,2 0,5 0,7c0,3 -0.382683,6.076126 0,7c0.541199,1.306564 1.458801,3.693436 2,5c0.382683,0.923874 0.234634,3.152237 1,5c0.541199,1.306564 0.097885,3.824432 2,5c0.850655,0.525726 1.617317,3.076126 2,4c0.541199,1.306564 1,2 1,2c1,2 0.85273,3.173096 2,4c1.813995,1.307449 1.474266,3.149353 2,4c1.175568,1.902115 1.693436,3.458801 3,4c0.923882,0.38269 0.692551,0.186005 2,2c0.826904,1.147263 2.617317,2.076126 3,3c0.541199,1.306564 1.693436,2.458801 3,3c0.923882,0.38269 0.617317,0.076126 1,1c0.541199,1.306564 1.692551,1.186005 3,3c0.826904,1.147263 2.458801,0.693436 3,2c0.382683,0.923874 1,2 2,2c0,0 1.076118,0.61731 2,1c1.306564,0.541199 2,2 3,3c1,1 1.692551,1.186005 3,3c0.826904,1.147263 2.076118,0.61731 3,1c1.306564,0.541199 1,2 2,2c1,0 3,2 3,2c1,0 2,0 3,0c1,0 1,0 3,0c2,0 4.150986,1.565369 6,-1c0.584717,-0.811249 0.823746,-2.486252 3,-3c0.973251,-0.229752 1,-1 2,-2c1,-1 1,-2 1,-2c0,-1 0,-3 0,-4c0,-1 0,-4 0,-4c0,-2 0,-4 0,-5c0,-1 0,-2 0,-4c0,-2 0,-3 0,-5c0,-2 0,-2 0,-4c0,-1 0,-2 0,-4c0,-1 0,-2 0,-4c0,-1 0,-2 0,-2c0,-1 -1.458801,-1.693436 -2,-3c-0.38269,-0.923874 0.707108,-1.292892 0,-2c-0.707108,-0.707108 -0.693436,-2.458801 -2,-3c-0.923874,-0.38269 -1.458801,-0.693436 -2,-2c-0.765366,-1.847763 0.707108,-2.292892 0,-3c-0.707108,-0.707108 -2,-1 -2,-2c0,-1 -1,-2 -2,-4c0,0 0.229752,-1.026749 0,-2c-0.513741,-2.176254 -1.493462,-2.878555 -2,-6c-0.160179,-0.987091 -1.493462,-0.878555 -2,-4c-0.160179,-0.987091 0,-2 0,-3c0,-1 0.382683,-2.076118 0,-3c-0.541199,-1.306564 -1,-2 -1,-3c0,0 0,-1 0,-2c0,-1 0,-2 0,-2c1,-1 1.026749,-1.770248 2,-2c2.176254,-0.513741 2.823746,-1.486259 5,-2c2.919754,-0.689262 5.693436,-0.458801 7,-1c2.771637,-1.148048 4.823746,-0.486259 7,-1c0.973251,-0.229752 3.026749,0.229752 4,0c2.176254,-0.513741 4,-1 4,-1c2,0 3,0 5,0c1,0 3,0 6,0c1,0 3,0 5,0c1,0 3,0 4,0c1,0 2,0 3,0c2,0 4,0 5,0c1,0 3,-1 4,-1c0,0 2.076126,0.382683 3,0c1.306564,-0.541199 1.053497,-1.540497 3,-2c2.176254,-0.513741 4,-2 5,-3c1,-1 1.292892,-2.292892 2,-3c1.414215,-1.414215 3,-1 3,-2c0,0 0.824432,-0.097885 2,-2c0.525726,-0.850655 0,-3 0,-4c0,-1 0,-4 0,-4c0,-1 0.229752,-4.026749 0,-5c-0.513748,-2.176254 -1.692551,-3.186005 -3,-5c-1.653809,-2.29454 -3,-3 -3,-3c-2,-2 -3,-3 -4,-4c-1,-1 -2.076126,-0.617317 -3,-1c-1.306564,-0.541199 -1.823746,-1.486259 -4,-2.000004c-0.973251,-0.229755 -3,-1 -5,-2c0,0 -4,-2 -5,-2c-3,0 -4.038742,0.480545 -7,0c-3.121445,-0.506542 -3.823746,-2.486256 -6,-3c-1.946503,-0.459507 -3,0 -4,0c-2,0 -3,0 -5,0c-1,0 -2,0 -4,0c-1,0 -1,0 -2,0c-2,0 -3,0 -3,0c-1,0 -3,0 -4,0c0,0 -1,0 -2,0c-1,0 -1.474274,0.149349 -2,1c-1.175568,1.902115 -4,2 -6,2c-2,0 -2.026749,-0.229752 -3,0c-2.176254,0.513744 -2.617317,1.076122 -3,2c-0.541199,1.306564 -2,1 -3,1c-1,0 -1,1 -2,1c-1,0 -2.076118,-0.382683 -3,0c-1.306564,0.541199 -3.292892,0.292896 -4,1.000004c-0.707108,0.707108 -1,1 -2,1c-1,0 -2,1 -2,1c-1,0 -2,1 -3,1c-1,0 -0.292892,1.292892 -1,2c-0.707108,0.707108 -0.823746,1.486259 -3,2c-0.973251,0.229752 -0.693436,1.458801 -2,2c-0.923882,0.382683 -1.292892,1.292892 -2,2c-0.707108,0.707108 -1,0 -1,1c0,1 -0.617317,1.076118 -1,2c-0.541199,1.306564 -1.292892,0.292892 -2,1c-1.414215,1.414215 -1,3 -1,4c0,0 -2,2 -4,4c0,0 -0.076118,1.617317 -1,2c-1.306564,0.541199 -1.076118,1.617317 -2,2c-1.306564,0.541199 -0.292892,3.292892 -1,4c-0.707108,0.707108 -1.617317,1.076118 -2,2c-0.541199,1.306564 -2,2 -2,3c0,1 1.565376,3.150986 -1,5c-0.811241,0.584709 -2,2 -2,2c0,1 -0.458801,2.693436 -1,4c-0.382683,0.923882 0,2 0,3c0,1 -0.234634,1.152245 -1,3c-0.541199,1.306564 -2,2 -2,4c0,1 0.459503,3.053505 0,5c-0.513741,2.176254 -1,3 -1,4c0,2 0,3 0,4c0,2 0,4 0,5c0,0 0,2 0,3c0,1 0.173096,0.852737 1,2c1.307449,1.813995 2,3 2,3c1,3 1.458801,2.693436 2,4c0.382683,0.923874 0.789848,1.07843 2,4c0.855705,2.065857 2.458801,3.693436 3,5c0.382683,0.923874 1.486259,2.823746 2,5c0.229752,0.973251 1.149345,1.474274 2,2c1.902115,1.175568 0.337494,4.310013 2,7c0.7435,1.203003 2.770248,2.026749 3,3c0.513741,2.176254 -0.05146,2.298691 1,4c1.175568,1.902115 3.486259,2.823746 4,5c0.229752,0.973251 0,1 1,2c1,1 2,2 3,3c1,1 0.693436,2.458801 2,3c0.923882,0.38269 0.693436,1.458801 2,2c0.923882,0.38269 2,0 3,0c1,0 1.152245,0.234634 3,1c1.306564,0.541199 2,1 4,1c1,0 2,0 4,0c2,0 4,0 6,0c3,0 5,-1 7,-1c1,0 3,0 5,-1c2,-1 5.152237,-0.234634 7,-1c1.306564,-0.541199 1.852737,-1.173096 3,-2c1.813995,-1.307449 1.292892,-1.292892 2,-2c0.707108,-0.707108 2.458801,-0.693436 3,-2c0.38269,-0.923874 0,-2 0,-2c0,-1 0,-2 0,-3c0,-1 0,-1 0,-3c0,-1 -0.458801,-1.693436 -1,-3c-1.148056,-2.771637 -0.917603,-4.386871 -2,-7c-0.38269,-0.923874 -0.346191,-1.70546 -2,-4c-1.307449,-1.813995 -0.770248,-3.026749 -1,-4c-0.513748,-2.176254 -1,-4 -1,-4c-2,-2 -3,-4 -3,-4c-1,-2 -0.714127,-4.21167 -3,-7c-0.896591,-1.093674 -1.770248,-2.026749 -2,-3c-0.513748,-2.176254 -2,-4 -3,-5c-1,-1 -0.61731,-3.076126 -1,-4c-0.541199,-1.306564 -3,-2 -3,-3c0,-1 -0.292892,-1.292892 -1,-2c-0.707108,-0.707108 -0.617317,-3.076118 -1,-4c-0.541199,-1.306564 -1,-2 -3,-4c0,0 0.229752,-1.026749 0,-2c-0.513741,-2.176254 -1.458801,-2.693436 -2,-4c-0.382683,-0.923882 0.229752,-2.026749 0,-3c-0.513741,-2.176254 -1,-3 -1,-4c0,-1 0,-2 0,-3c0,0 0,-1 1,-1c1,0 2,0 4,0c1,0 2.823746,0.486259 5,1c0.973251,0.229752 3.386871,0.91761 6,2c1.847763,0.765366 3.080246,-0.689262 6,0c2.176254,0.513741 2.823746,1.486259 5,2c0.973251,0.229752 2,0 4,0c1,0 2,0 4,0c1,0 4,0 5,0c3,0 3,0 6,0c1,0 2,0 5,0c0,0 1,0 3,0c1,0 1.152237,0.765366 3,0c2.613129,-1.08239 2,-3 2,-3c1,0 2,-1 2,-1c2,-1 1.61731,-1.076118 2,-2c0.541199,-1.306564 1.693436,-1.458801 3,-2c0.923874,-0.382683 1,-1 1,-2c0,-1 2.292892,-1.292892 3,-2c0.707108,-0.707108 1,-2 1,-4c0,0 1,-1 1,-2c0,-1 0,-2 0,-2c0,-1 0,-2 0,-3c0,-1 0,-2 0,-3c0,-1 0,-2 0,-2c0,-2 0,-4 0,-4c-1,-1 -0.292892,-2.292892 -1,-3c-0.707108,-0.707108 -2.076126,-0.617317 -3,-1c-1.306564,-0.541199 -1.053497,-1.540497 -3,-2c-2.176254,-0.513741 -2.053497,-0.540497 -4,-1c-2.176254,-0.513741 -2.076126,-0.617317 -3,-1c-1.306564,-0.541199 -2,-2 -3,-2c-1,0 -1.693436,-1.458801 -3,-2c-0.923874,-0.382683 -1.474274,-0.149345 -2,-1c-1.175568,-1.902115 -3,-3.000004 -5,-3.000004c-1,0 -1,-1 -2,-1c0,0 -1,-1 -2,-1c-1,0 -1.292892,-0.292892 -2,-1c-0.707108,-0.707108 -2,0 -3,0c-1,0 -3,-1 -5,-1c-3,0 -4,0 -7,0c-2,0 -5,0 -6,0c-4,0 -6.878555,-0.493458 -10,-1c-1.974174,-0.320366 -4,0 -5,0l-1,0l-1,0l-1,0" id="svg_3" stroke-width="1.5" stroke="#000" fill="none"/>
  <path d="m239.5,27.049999c-1,0 -2.486252,0.82375 -3,3c-0.229752,0.973249 0.306564,3.458805 -1,4c-0.923874,0.382683 -1.292892,0.292892 -2,1c-0.707108,0.707108 0,3 0,4c0,1 -1,3 -1,4c0,0 0,1 0,2c0,1 0,3 0,4c0,1 0,2 0,4c0,1 -0.459503,2.053501 0,4c0.513748,2.17625 1.097885,4.824429 3,6c0.850647,0.52573 1,1.000004 2,1.000004c1,0 2.693436,-0.458805 4,-1.000004c0.923874,-0.382683 2.173096,-0.85273 3,-2c1.307449,-1.813992 3.292892,-1.292892 4,-2c1.414215,-1.414215 1.234634,-3.152241 2,-5c1.082397,-2.613125 2,-3 2,-3c0,-1 1.458801,-1.693436 2,-3c0.38269,-0.923878 0.458801,-1.693436 1,-3c0.38269,-0.923878 0,-2 0,-3c0,-1 0,-2 0,-3c0,-1 0,-2 -2,-4c-1,-1 -1.693436,-2.458805 -3,-3c-0.923874,-0.382683 -1,-1 -2,-1c-1,0 -2,0 -3,0c-1,0 -1,0 -3,0c-2,0 -2,-1 -3,-1c-1,0 -2,0 -3,0c0,0 -0.693436,0.458803 -2,1c-0.923874,0.382683 -2,2 -2,3c0,1 0,2 0,3c0,1 0,2 0,3c0,1 0.707108,2.292892 0,3c-0.707108,0.707108 -1,0 -1,1c0,1 0,2 0,3c0,1 0,2 0,3c0,1 -0.38269,2.076122 0,3c0.541199,1.306564 1,2 2,2c1,0 2,0 3,0c0,0 1.152237,-0.765366 3,0c1.306564,0.541195 1,1 3,1c1,0 2,0 4,0c1,0 2.186005,0.307453 4,-1c1.147263,-0.826904 2,-2 2,-2c1,-1 2.824432,-1.097885 4,-3c0.525726,-0.850651 -0.229767,-2.026752 0,-3c0.513733,-2.17625 2,-3 2,-4l0,0l0,-1" id="svg_4" stroke-width="1.5" stroke="#000" fill="none"/>
  <path d="m271.5,117.050003c-1,0 -2,1 -3,2c0,0 -2,1 -4,3c-2,2 -2,4 -3,5c-4,4 -3.469269,6.304489 -5,10c-1.623581,3.919693 -3.486252,5.823746 -4,8c-0.459503,1.946503 -1,5 -1,7c0,2 0,4 0,6c0,1 0.486252,1.823746 1,4c0.229752,0.973251 1,1 3,1c1,0 3.593994,-2.513 6,-4c2.690002,-1.662506 5,-3 7,-4c2,-1 5.234009,-3.49295 10,-6c3.190979,-1.678558 4.906342,-3.103409 6,-4c2.78833,-2.285873 2.812653,-2.206802 5,-4c2.78833,-2.285873 3,-3 4,-4c2,-2 3,-3 3,-4c0,-2 0,-3 0,-4c0,-1 0.525726,-2.149345 0,-3c-1.175568,-1.902115 -2.693451,-2.458801 -4,-3c-0.923889,-0.382683 -2,-1 -3,-1l-1,0l0,0" id="svg_5" stroke-width="1.5" stroke="#000" fill="none"/>
  <ellipse ry="38.5" rx="95.5" id="svg_6" cy="238.55" cx="152.25" stroke-width="1.5" stroke="#000" fill="#fff"/>
  <ellipse stroke-dasharray="5,5" ry="0.5" rx="23" id="svg_7" cy="1.249997" cx="151.5" stroke-width="2" stroke="#000" fill="#fff"/>
  <ellipse id="svg_8" cy="167.05" cx="488.5" stroke-width="2" stroke="#000" fill="#fff"/>
  <path id="svg_9" d="m88.062501,108.224747l0,0c0,-23.472098 25.743629,-42.499997 57.499999,-42.499997l0,0c15.249941,0 29.875297,4.477663 40.658631,12.447958c10.783345,7.970298 16.841368,18.780335 16.841368,30.052039l0,0c0,23.472095 -25.743629,42.499997 -57.499999,42.499997l0,0c-31.756366,0 -57.499999,-19.027902 -57.499999,-42.499997zm28.749999,0l0,0c0,11.736046 12.871822,21.249998 28.749999,21.249998c15.878189,0 28.749999,-9.513952 28.749999,-21.249998c0,-11.736046 -12.871819,-21.249998 -28.749999,-21.249998l0,0c-15.878177,0 -28.749999,9.513955 -28.749999,21.249998z" stroke-opacity="null" stroke-width="1.5" stroke="#000" fill="#97944B"/>
 </g>
</svg>